<svg xmlns="http://www.w3.org/2000/svg" xmlns:xlink="http://www.w3.org/1999/xlink" width="500" zoomAndPan="magnify" viewBox="0 0 375 112.499997" height="150" preserveAspectRatio="xMidYMid meet" version="1.2"><defs/><g id="ba986828f0"><g style="fill:#000000;fill-opacity:1;"><g transform="translate(0.829651, 81.001202)"><path style="stroke:none" d="M 11.59375 -58.359375 C 12.925781 -58.359375 14.101562 -57.867188 15.125 -56.890625 C 16.15625 -55.921875 16.671875 -54.710938 16.671875 -53.265625 L 16.671875 -5.078125 C 16.671875 -3.640625 16.140625 -2.429688 15.078125 -1.453125 C 14.023438 -0.484375 12.804688 0 11.421875 0 C 9.867188 0 8.617188 -0.484375 7.671875 -1.453125 C 6.722656 -2.429688 6.25 -3.640625 6.25 -5.078125 L 6.25 -53.265625 C 6.25 -54.710938 6.75 -55.921875 7.75 -56.890625 C 8.75 -57.867188 10.03125 -58.359375 11.59375 -58.359375 Z M 48.515625 -58.359375 C 50.066406 -58.359375 51.316406 -57.867188 52.265625 -56.890625 C 53.210938 -55.921875 53.6875 -54.710938 53.6875 -53.265625 L 53.6875 -5.078125 C 53.6875 -3.640625 53.195312 -2.429688 52.21875 -1.453125 C 51.25 -0.484375 49.957031 0 48.34375 0 C 47.007812 0 45.828125 -0.484375 44.796875 -1.453125 C 43.773438 -2.429688 43.265625 -3.640625 43.265625 -5.078125 L 43.265625 -53.265625 C 43.265625 -54.710938 43.789062 -55.921875 44.84375 -56.890625 C 45.90625 -57.867188 47.128906 -58.359375 48.515625 -58.359375 Z M 11.34375 -34.09375 L 48.515625 -34.09375 L 48.515625 -24.5 L 11.34375 -24.5 Z M 11.34375 -34.09375 "/></g></g><g style="fill:#000000;fill-opacity:1;"><g transform="translate(60.767949, 81.001202)"><path style="stroke:none" d="M 41.9375 -45.4375 C 43.375 -45.4375 44.566406 -44.960938 45.515625 -44.015625 C 46.460938 -43.066406 46.9375 -41.84375 46.9375 -40.34375 L 46.9375 -5.078125 C 46.9375 -3.640625 46.460938 -2.429688 45.515625 -1.453125 C 44.566406 -0.484375 43.375 0 41.9375 0 C 40.488281 0 39.289062 -0.484375 38.34375 -1.453125 C 37.394531 -2.429688 36.921875 -3.640625 36.921875 -5.078125 L 36.921875 -9.171875 L 38.765625 -8.421875 C 38.765625 -7.691406 38.375 -6.8125 37.59375 -5.78125 C 36.8125 -4.757812 35.753906 -3.75 34.421875 -2.75 C 33.085938 -1.75 31.519531 -0.898438 29.71875 -0.203125 C 27.914062 0.484375 25.957031 0.828125 23.84375 0.828125 C 20.007812 0.828125 16.535156 -0.15625 13.421875 -2.125 C 10.304688 -4.09375 7.84375 -6.8125 6.03125 -10.28125 C 4.226562 -13.757812 3.328125 -17.75 3.328125 -22.25 C 3.328125 -26.8125 4.226562 -30.828125 6.03125 -34.296875 C 7.84375 -37.773438 10.273438 -40.5 13.328125 -42.46875 C 16.390625 -44.445312 19.78125 -45.4375 23.5 -45.4375 C 25.894531 -45.4375 28.09375 -45.070312 30.09375 -44.34375 C 32.09375 -43.625 33.828125 -42.707031 35.296875 -41.59375 C 36.773438 -40.476562 37.914062 -39.351562 38.71875 -38.21875 C 39.519531 -37.082031 39.921875 -36.125 39.921875 -35.34375 L 36.921875 -34.265625 L 36.921875 -40.34375 C 36.921875 -41.789062 37.394531 -43 38.34375 -43.96875 C 39.289062 -44.945312 40.488281 -45.4375 41.9375 -45.4375 Z M 25.09375 -8.34375 C 27.539062 -8.34375 29.679688 -8.953125 31.515625 -10.171875 C 33.347656 -11.390625 34.773438 -13.054688 35.796875 -15.171875 C 36.828125 -17.285156 37.34375 -19.644531 37.34375 -22.25 C 37.34375 -24.925781 36.828125 -27.316406 35.796875 -29.421875 C 34.773438 -31.535156 33.347656 -33.203125 31.515625 -34.421875 C 29.679688 -35.648438 27.539062 -36.265625 25.09375 -36.265625 C 22.695312 -36.265625 20.582031 -35.648438 18.75 -34.421875 C 16.914062 -33.203125 15.484375 -31.535156 14.453125 -29.421875 C 13.429688 -27.316406 12.921875 -24.925781 12.921875 -22.25 C 12.921875 -19.644531 13.429688 -17.285156 14.453125 -15.171875 C 15.484375 -13.054688 16.914062 -11.390625 18.75 -10.171875 C 20.582031 -8.953125 22.695312 -8.34375 25.09375 -8.34375 Z M 25.09375 -8.34375 "/></g></g><g style="fill:#000000;fill-opacity:1;"><g transform="translate(113.120163, 81.001202)"><path style="stroke:none" d="M 29.265625 -45.4375 C 33.367188 -45.4375 36.488281 -44.570312 38.625 -42.84375 C 40.769531 -41.125 42.242188 -38.832031 43.046875 -35.96875 C 43.859375 -33.101562 44.265625 -29.921875 44.265625 -26.421875 L 44.265625 -5.078125 C 44.265625 -3.640625 43.789062 -2.429688 42.84375 -1.453125 C 41.894531 -0.484375 40.703125 0 39.265625 0 C 37.816406 0 36.617188 -0.484375 35.671875 -1.453125 C 34.734375 -2.429688 34.265625 -3.640625 34.265625 -5.078125 L 34.265625 -26.421875 C 34.265625 -28.253906 34.023438 -29.90625 33.546875 -31.375 C 33.078125 -32.851562 32.226562 -34.035156 31 -34.921875 C 29.78125 -35.816406 28.035156 -36.265625 25.765625 -36.265625 C 23.535156 -36.265625 21.65625 -35.816406 20.125 -34.921875 C 18.601562 -34.035156 17.4375 -32.851562 16.625 -31.375 C 15.820312 -29.90625 15.421875 -28.253906 15.421875 -26.421875 L 15.421875 -5.078125 C 15.421875 -3.640625 14.945312 -2.429688 14 -1.453125 C 13.0625 -0.484375 11.867188 0 10.421875 0 C 8.972656 0 7.773438 -0.484375 6.828125 -1.453125 C 5.890625 -2.429688 5.421875 -3.640625 5.421875 -5.078125 L 5.421875 -39.515625 C 5.421875 -40.960938 5.890625 -42.171875 6.828125 -43.140625 C 7.773438 -44.109375 8.972656 -44.59375 10.421875 -44.59375 C 11.867188 -44.59375 13.0625 -44.109375 14 -43.140625 C 14.945312 -42.171875 15.421875 -40.960938 15.421875 -39.515625 L 15.421875 -35.921875 L 14.171875 -36.171875 C 14.671875 -37.117188 15.390625 -38.132812 16.328125 -39.21875 C 17.273438 -40.300781 18.390625 -41.316406 19.671875 -42.265625 C 20.953125 -43.210938 22.394531 -43.976562 24 -44.5625 C 25.613281 -45.144531 27.367188 -45.4375 29.265625 -45.4375 Z M 29.265625 -45.4375 "/></g></g><g style="fill:#000000;fill-opacity:1;"><g transform="translate(162.804748, 81.001202)"><path style="stroke:none" d="M 41.9375 -61.6875 C 43.375 -61.6875 44.566406 -61.210938 45.515625 -60.265625 C 46.460938 -59.328125 46.9375 -58.101562 46.9375 -56.59375 L 46.9375 -5.078125 C 46.9375 -3.640625 46.460938 -2.429688 45.515625 -1.453125 C 44.566406 -0.484375 43.375 0 41.9375 0 C 40.488281 0 39.289062 -0.484375 38.34375 -1.453125 C 37.394531 -2.429688 36.921875 -3.640625 36.921875 -5.078125 L 36.921875 -9.171875 L 38.765625 -8.421875 C 38.765625 -7.691406 38.375 -6.8125 37.59375 -5.78125 C 36.8125 -4.757812 35.753906 -3.75 34.421875 -2.75 C 33.085938 -1.75 31.519531 -0.898438 29.71875 -0.203125 C 27.914062 0.484375 25.957031 0.828125 23.84375 0.828125 C 20.007812 0.828125 16.535156 -0.15625 13.421875 -2.125 C 10.304688 -4.09375 7.84375 -6.8125 6.03125 -10.28125 C 4.226562 -13.757812 3.328125 -17.75 3.328125 -22.25 C 3.328125 -26.8125 4.226562 -30.828125 6.03125 -34.296875 C 7.84375 -37.773438 10.273438 -40.5 13.328125 -42.46875 C 16.390625 -44.445312 19.78125 -45.4375 23.5 -45.4375 C 25.894531 -45.4375 28.09375 -45.070312 30.09375 -44.34375 C 32.09375 -43.625 33.828125 -42.707031 35.296875 -41.59375 C 36.773438 -40.476562 37.914062 -39.351562 38.71875 -38.21875 C 39.519531 -37.082031 39.921875 -36.125 39.921875 -35.34375 L 36.921875 -34.265625 L 36.921875 -56.59375 C 36.921875 -58.039062 37.394531 -59.25 38.34375 -60.21875 C 39.289062 -61.195312 40.488281 -61.6875 41.9375 -61.6875 Z M 25.09375 -8.34375 C 27.539062 -8.34375 29.679688 -8.953125 31.515625 -10.171875 C 33.347656 -11.390625 34.773438 -13.054688 35.796875 -15.171875 C 36.828125 -17.285156 37.34375 -19.644531 37.34375 -22.25 C 37.34375 -24.925781 36.828125 -27.316406 35.796875 -29.421875 C 34.773438 -31.535156 33.347656 -33.203125 31.515625 -34.421875 C 29.679688 -35.648438 27.539062 -36.265625 25.09375 -36.265625 C 22.695312 -36.265625 20.582031 -35.648438 18.75 -34.421875 C 16.914062 -33.203125 15.484375 -31.535156 14.453125 -29.421875 C 13.429688 -27.316406 12.921875 -24.925781 12.921875 -22.25 C 12.921875 -19.644531 13.429688 -17.285156 14.453125 -15.171875 C 15.484375 -13.054688 16.914062 -11.390625 18.75 -10.171875 C 20.582031 -8.953125 22.695312 -8.34375 25.09375 -8.34375 Z M 25.09375 -8.34375 "/></g></g><g style="fill:#000000;fill-opacity:1;"><g transform="translate(215.156962, 81.001202)"><path style="stroke:none" d="M 38.515625 -44.59375 C 39.953125 -44.59375 41.144531 -44.109375 42.09375 -43.140625 C 43.039062 -42.171875 43.515625 -40.960938 43.515625 -39.515625 L 43.515625 -4.078125 C 43.515625 1.023438 42.554688 5.09375 40.640625 8.125 C 38.722656 11.15625 36.148438 13.335938 32.921875 14.671875 C 29.703125 16.003906 26.09375 16.671875 22.09375 16.671875 C 20.3125 16.671875 18.421875 16.53125 16.421875 16.25 C 14.421875 15.976562 12.78125 15.5625 11.5 15 C 9.832031 14.28125 8.675781 13.378906 8.03125 12.296875 C 7.394531 11.210938 7.273438 10.0625 7.671875 8.84375 C 8.171875 7.226562 8.972656 6.128906 10.078125 5.546875 C 11.191406 4.960938 12.363281 4.890625 13.59375 5.328125 C 14.476562 5.609375 15.640625 6.039062 17.078125 6.625 C 18.523438 7.207031 20.195312 7.5 22.09375 7.5 C 24.644531 7.5 26.769531 7.148438 28.46875 6.453125 C 30.164062 5.765625 31.441406 4.597656 32.296875 2.953125 C 33.160156 1.316406 33.59375 -0.914062 33.59375 -3.75 L 33.59375 -9.34375 L 35.34375 -7.328125 C 34.394531 -5.492188 33.210938 -3.976562 31.796875 -2.78125 C 30.378906 -1.59375 28.695312 -0.691406 26.75 -0.078125 C 24.8125 0.523438 22.59375 0.828125 20.09375 0.828125 C 17.144531 0.828125 14.570312 0.148438 12.375 -1.203125 C 10.1875 -2.566406 8.476562 -4.457031 7.25 -6.875 C 6.03125 -9.289062 5.421875 -12.054688 5.421875 -15.171875 L 5.421875 -39.515625 C 5.421875 -40.960938 5.890625 -42.171875 6.828125 -43.140625 C 7.773438 -44.109375 8.972656 -44.59375 10.421875 -44.59375 C 11.867188 -44.59375 13.0625 -44.109375 14 -43.140625 C 14.945312 -42.171875 15.421875 -40.960938 15.421875 -39.515625 L 15.421875 -18.171875 C 15.421875 -14.554688 16.210938 -12.015625 17.796875 -10.546875 C 19.378906 -9.078125 21.585938 -8.34375 24.421875 -8.34375 C 26.367188 -8.34375 28.007812 -8.71875 29.34375 -9.46875 C 30.675781 -10.21875 31.703125 -11.328125 32.421875 -12.796875 C 33.148438 -14.265625 33.515625 -16.054688 33.515625 -18.171875 L 33.515625 -39.515625 C 33.515625 -40.960938 33.984375 -42.171875 34.921875 -43.140625 C 35.867188 -44.109375 37.066406 -44.59375 38.515625 -44.59375 Z M 38.515625 -44.59375 "/></g></g><g style="fill:#4e936e;fill-opacity:1;"><g transform="translate(264.109944, 81.001202)"><path style="stroke:none" d="M 33.765625 0.828125 C 29.535156 0.828125 25.585938 0.0507812 21.921875 -1.5 C 18.253906 -3.050781 15.03125 -5.203125 12.25 -7.953125 C 9.46875 -10.710938 7.285156 -13.894531 5.703125 -17.5 C 4.117188 -21.113281 3.328125 -25.003906 3.328125 -29.171875 C 3.328125 -33.335938 4.117188 -37.226562 5.703125 -40.84375 C 7.285156 -44.457031 9.46875 -47.640625 12.25 -50.390625 C 15.03125 -53.140625 18.253906 -55.289062 21.921875 -56.84375 C 25.585938 -58.40625 29.535156 -59.1875 33.765625 -59.1875 C 36.367188 -59.1875 38.894531 -58.90625 41.34375 -58.34375 C 43.789062 -57.789062 46.039062 -56.957031 48.09375 -55.84375 C 48.925781 -55.40625 49.550781 -54.8125 49.96875 -54.0625 C 50.382812 -53.3125 50.59375 -52.546875 50.59375 -51.765625 C 50.59375 -50.429688 50.148438 -49.234375 49.265625 -48.171875 C 48.378906 -47.117188 47.238281 -46.59375 45.84375 -46.59375 C 45.40625 -46.59375 44.945312 -46.648438 44.46875 -46.765625 C 44 -46.878906 43.539062 -47.046875 43.09375 -47.265625 C 41.707031 -47.878906 40.234375 -48.351562 38.671875 -48.6875 C 37.117188 -49.019531 35.484375 -49.1875 33.765625 -49.1875 C 30.148438 -49.1875 26.851562 -48.28125 23.875 -46.46875 C 20.90625 -44.664062 18.546875 -42.25 16.796875 -39.21875 C 15.046875 -36.1875 14.171875 -32.835938 14.171875 -29.171875 C 14.171875 -25.554688 15.046875 -22.222656 16.796875 -19.171875 C 18.546875 -16.117188 20.90625 -13.6875 23.875 -11.875 C 26.851562 -10.070312 30.148438 -9.171875 33.765625 -9.171875 C 35.429688 -9.171875 37.265625 -9.335938 39.265625 -9.671875 C 41.265625 -10.003906 42.90625 -10.445312 44.1875 -11 L 43.4375 -8.5 L 43.4375 -22.75 L 44.84375 -21.5 L 35.59375 -21.5 C 34.144531 -21.5 32.9375 -21.972656 31.96875 -22.921875 C 31 -23.867188 30.515625 -25.066406 30.515625 -26.515625 C 30.515625 -27.953125 31 -29.144531 31.96875 -30.09375 C 32.9375 -31.039062 34.144531 -31.515625 35.59375 -31.515625 L 49.265625 -31.515625 C 50.710938 -31.515625 51.90625 -31.023438 52.84375 -30.046875 C 53.789062 -29.078125 54.265625 -27.867188 54.265625 -26.421875 L 54.265625 -8.75 C 54.265625 -7.632812 54 -6.71875 53.46875 -6 C 52.945312 -5.28125 52.351562 -4.695312 51.6875 -4.25 C 49.125 -2.695312 46.328125 -1.460938 43.296875 -0.546875 C 40.273438 0.367188 37.097656 0.828125 33.765625 0.828125 Z M 33.765625 0.828125 "/></g></g><g style="fill:#4e936e;fill-opacity:1;"><g transform="translate(322.130879, 81.001202)"><path style="stroke:none" d="M 48.6875 -22.25 C 48.6875 -17.695312 47.671875 -13.679688 45.640625 -10.203125 C 43.609375 -6.734375 40.882812 -4.023438 37.46875 -2.078125 C 34.050781 -0.140625 30.234375 0.828125 26.015625 0.828125 C 21.785156 0.828125 17.960938 -0.140625 14.546875 -2.078125 C 11.128906 -4.023438 8.40625 -6.734375 6.375 -10.203125 C 4.34375 -13.679688 3.328125 -17.695312 3.328125 -22.25 C 3.328125 -26.8125 4.34375 -30.828125 6.375 -34.296875 C 8.40625 -37.773438 11.128906 -40.5 14.546875 -42.46875 C 17.960938 -44.445312 21.785156 -45.4375 26.015625 -45.4375 C 30.234375 -45.4375 34.050781 -44.445312 37.46875 -42.46875 C 40.882812 -40.5 43.609375 -37.773438 45.640625 -34.296875 C 47.671875 -30.828125 48.6875 -26.8125 48.6875 -22.25 Z M 38.671875 -22.25 C 38.671875 -25.09375 38.101562 -27.554688 36.96875 -29.640625 C 35.832031 -31.722656 34.304688 -33.347656 32.390625 -34.515625 C 30.472656 -35.679688 28.347656 -36.265625 26.015625 -36.265625 C 23.671875 -36.265625 21.539062 -35.679688 19.625 -34.515625 C 17.707031 -33.347656 16.179688 -31.722656 15.046875 -29.640625 C 13.910156 -27.554688 13.34375 -25.09375 13.34375 -22.25 C 13.34375 -19.476562 13.910156 -17.050781 15.046875 -14.96875 C 16.179688 -12.882812 17.707031 -11.257812 19.625 -10.09375 C 21.539062 -8.925781 23.671875 -8.34375 26.015625 -8.34375 C 28.347656 -8.34375 30.472656 -8.925781 32.390625 -10.09375 C 34.304688 -11.257812 35.832031 -12.882812 36.96875 -14.96875 C 38.101562 -17.050781 38.671875 -19.476562 38.671875 -22.25 Z M 38.671875 -22.25 "/></g></g></g></svg>